<svg width="56" height="55" viewBox="0 0 56 55" fill="none" xmlns="http://www.w3.org/2000/svg">
<path d="M6.91935 25.6653C6.91935 25.6653 7.00042 18.1368 14.8641 11.0089C22.7277 3.88095 35.5348 8.57941 35.5348 8.57941L39.1868 2.74866C39.5411 2.38387 24.816 -4.66017 11.5414 5.33937C-1.82517 15.4075 -0.00936322 27.2441 0.191501 27.3149L6.91935 25.6653Z" fill="#262261"/>
<path d="M40.6453 11.4977L44.4552 5.82599C44.4552 5.82599 57.913 16.113 54.9132 31.5799C51.9134 47.0469 39.1918 52.3079 39.1918 52.3079L37.6455 44.8575C37.6455 44.8575 48.3468 39.5133 48.0225 28.0948C47.6982 16.6762 40.6453 11.4977 40.6453 11.4977Z" fill="#2B388F"/>
<path d="M31.9701 47.3679L33.5106 54.0071C33.5106 54.0071 19.4866 56.8415 10.3243 48.9052C1.16199 40.9689 0.67627 33.3579 0.67627 33.3579L7.48665 31.8193C7.48665 31.8193 9.43174 40.6471 16.5664 44.9377C23.7011 49.2284 31.9701 47.3672 31.9701 47.3672" fill="#25A9E0"/>
<path d="M18.779 21.5724H16.4672V37.186H12.5515V21.5724H9.78174V17.4832H18.779V21.5724Z" fill="black"/>
<path d="M19.5913 37.186V17.4365H24.3653C25.829 17.4365 26.9539 17.8209 27.7398 18.5899C28.5257 19.3589 28.9192 20.4425 28.9202 21.8409C28.9202 22.855 28.6806 24.2179 28.2022 24.9781C27.7237 25.7383 27.1117 26.2672 26.3688 26.5642V26.616C27.3008 26.7823 28.0488 26.8005 28.6046 27.6213C29.1605 28.4421 29.4417 29.4452 29.4417 30.6235C29.4417 32.3453 29.4884 33.7111 28.6287 34.7201C27.769 35.7291 26.119 37.186 24.6312 37.186H19.5913ZM23.0243 20.5561V25.0131H23.8467C24.4564 25.0131 24.9365 24.801 25.2871 24.3769C25.6377 23.9528 25.8132 23.3691 25.8137 22.6259C25.8137 21.2451 25.0942 20.5547 23.6553 20.5547L23.0243 20.5561ZM23.0243 28.159V33.1143H24.1484C24.8301 33.1143 25.3657 32.8871 25.7553 32.4329C26.1448 31.9786 26.3381 31.3579 26.3352 30.571C26.3352 29.8195 26.1448 29.2298 25.764 28.8018C25.3832 28.3737 24.8513 28.1597 24.1681 28.1597L23.0243 28.159Z" fill="black"/>
<path d="M30.3611 17.4357H36.3812L37.2321 27.8686L38.2656 17.4357L44.5289 17.4832V37.186H40.8192L40.8805 22.2203L38.6308 37.186H35.9553L34.3134 22.4027L34.0095 37.186H30.3611V17.4357Z" fill="black"/>
</svg>
