<svg id="Layer_1" data-name="Layer 1" xmlns="http://www.w3.org/2000/svg" viewBox="0 0 696 696"><defs><style>.cls-1{fill:#ee7461;}.cls-2{fill:#fff;}</style></defs><title>icn_x</title><circle class="cls-1" cx="348" cy="348" r="348"/><path class="cls-1" d="M394.84,466.75c-93-3.83-66.92-143.4,17.89-139C495.55,352.64,482.15,464.67,394.84,466.75Z" transform="translate(-55 -51)"/><path class="cls-2" d="M617.41,593.94c-38.41,0-75.57-.2-112.72.18-7.08.07-11.17-2-15.21-7.94-34.74-51.05-69.88-101.83-104.9-152.68-1.12-1.62-2.27-3.22-3.75-5.32-7.9,9.15-15.5,17.91-23.05,26.69-35.93,41.81-72.28,83.27-107.48,125.68-8.72,10.5-17.46,15.39-30.68,13.52-5.16-.73-10.5-.12-16.88-.12,8-9.39,15.32-18,22.64-26.48q47.52-55.33,95.06-110.65C334,441,347.51,425.18,361.27,409.56c2.87-3.26,3.34-5.34.66-9.22Q283.85,287.4,206.11,174.21c-.74-1.08-1.43-2.2-2.51-3.87a32,32,0,0,1,4-.54c38,0,76,0,114-.09,3.08,0,4.71,1.2,6.38,3.63q50.86,74.09,101.9,148.06c.85,1.23,1.73,2.44,2.78,3.92a12.8,12.8,0,0,0,2.31-1.69Q484.6,265.85,534.21,208q15.46-18,31.07-35.88c.82-.94,2-2.16,3.09-2.18,11.07-.16,22.14-.1,34.4-.1L448.81,349ZM256.49,197.78c1.25,2,1.82,3,2.47,3.93q31.54,45.87,63.1,91.74Q414.49,427.72,506.88,562c2,2.94,4,4.2,7.63,4.15,15.16-.2,30.33-.08,45.5-.11,1.2,0,2.41-.24,4-.41-10.9-15.85-21.44-31.21-32-46.55Q426.32,365.49,320.84,211.68c-7.19-10.54-14.26-15.51-27.12-14.16C281.74,198.77,269.53,197.78,256.49,197.78Z" transform="translate(-55 -51)"/><path class="cls-1" d="M256.49,197.78c13,0,25.25,1,37.23-.27,12.86-1.35,19.94,3.63,27.12,14.16q105.06,154.1,211.22,307.45c10.56,15.34,21.1,30.69,32,46.55-1.64.17-2.84.41-4,.41-15.17,0-30.33-.09-45.5.11-3.61,0-5.61-1.21-7.63-4.15Q414.56,427.68,322.05,293.45q-31.57-45.85-63.1-91.74C258.31,200.77,257.74,199.77,256.49,197.78Z" transform="translate(-55 -51)"/></svg>