<?xml version="1.0" encoding="utf-8"?>
<!-- Generator: Adobe Illustrator 21.1.0, SVG Export Plug-In . SVG Version: 6.00 Build 0)  -->
<svg version="1.1" id="Layer_1" xmlns="http://www.w3.org/2000/svg" xmlns:xlink="http://www.w3.org/1999/xlink" x="0px" y="0px"
	 viewBox="0 0 800 800" style="enable-background:new 0 0 800 800;" xml:space="preserve">
<style type="text/css">
	.st0{fill:#EE7461;}
	.st1{fill:#FFFFFF;}
</style>
<circle class="st0" cx="403" cy="399" r="348"/>
<path class="st1" d="M499.4,272.4c32.5-1.6,37.5,51.6,1.8,46.9C471.7,318.5,467.9,273.2,499.4,272.4z"/>
<path class="st1" d="M358.2,194.7c173.9-10.6,250,14.1,247.5,204.4c7.6,191.5-94.8,208-257.9,211C217,621.2,184.7,488.4,191.2,383.4
	C191.4,276.2,238.5,185.4,358.2,194.7z M569.1,405.1c0-117.9-14.5-180.3-148.3-174.3c-39.8,3.9-86.3-2-126.3,11.6
	c-80.2,39.2-69.2,147-61.8,221.7c7.2,120.8,107.4,117.2,201.1,103.7C549,561.7,570.2,512,569.1,405.1z"/>
<path class="st1" d="M412.7,327.8c-84.7-4.3-110.9,135.2-17.9,139C482.2,464.7,495.6,352.6,412.7,327.8z M394.9,295.7
	c146.3-9.9,137.3,206.3-0.7,204.8C263.5,496.5,275.7,307.4,394.9,295.7z"/>
<path class="st0" d="M394.8,466.8c-93-3.8-66.9-143.4,17.9-139C495.6,352.6,482.2,464.7,394.8,466.8z"/>
<path class="st0" d="M420.8,230.8c133.8-6.1,148.4,56.4,148.3,174.3c1,106.9-20.1,156.6-135.2,162.7
	c-93.7,13.5-193.8,17.1-201.1-103.7c-7.4-74.8-18.4-182.5,61.8-221.7C334.5,228.8,381,234.7,420.8,230.8z M394.3,500.5
	c137.9,1.5,147-214.7,0.7-204.8C275.7,307.4,263.5,496.5,394.3,500.5z M501.2,319.4c35.6,4.7,30.6-48.4-1.8-46.9
	C467.9,273.2,471.7,318.5,501.2,319.4z"/>
<path class="st0" d="M726.3,314.9c-0.2-21.2-2.2-40.7-5.8-58.6c-33.8-75-93.3-135.9-167.4-171.3c-70.8-20.2-154.3-20.7-232.7-13.4
	c-12.9-0.3-25.2-0.1-37,0.6C183.1,108.8,104.4,190.4,71.6,292.5c-0.8,9.6-1.3,19.5-1.5,29.7c-1.1,63.3,1,126.3,3.6,189.5
	c36.2,105.9,122.1,188.8,229.9,220.9c44.2,1.5,88.9-1.3,132.9-3.1c28.9-0.7,57.5-0.8,84.9-3.1C606,695.8,675.4,633.2,715,553.3
	C734.2,476.3,731.1,393.5,726.3,314.9z M347.7,610.1C217,621.2,184.6,488.5,191.1,383.4c0.3-107.3,47.4-198,167.1-188.8
	c173.9-10.6,250.1,14.1,247.5,204.4C613.3,590.6,510.9,607.2,347.7,610.1z"/>
</svg>
