<svg id="Layer_1" data-name="Layer 1" xmlns="http://www.w3.org/2000/svg" viewBox="0 0 58.67 58.68"><defs><style>.cls-1{fill:#262261;}.cls-2{fill:#fff;}.cls-3{fill:#25a9e0;}.cls-4{fill:#2b388f;}</style></defs><title>logoIzq</title><path class="cls-1" d="M10.85,32l-7.29-.42A29.35,29.35,0,0,1,44.22,6.26L41.39,13A22.05,22.05,0,0,0,10.85,32Z" transform="translate(-3.52 -3.98)"/><path class="cls-2" d="M4.11,39.22a29.54,29.54,0,0,1-.6-5.91q0-.87,0-1.72l7.29.42c0,.43,0,.86,0,1.3a22.22,22.22,0,0,0,.45,4.44Z" transform="translate(-3.52 -3.98)"/><path class="cls-3" d="M32.85,62.65A29.43,29.43,0,0,1,4.11,39.22l7.15-1.46A22.07,22.07,0,0,0,37.59,54.84L39.16,62A29.47,29.47,0,0,1,32.85,62.65Z" transform="translate(-3.52 -3.98)"/><path class="cls-2" d="M39.16,62l-1.56-7.13a21.87,21.87,0,0,0,5.29-1.9l3.33,6.5A29.16,29.16,0,0,1,39.16,62Z" transform="translate(-3.52 -3.98)"/><path class="cls-4" d="M46.21,59.44l-3.33-6.5A22,22,0,0,0,46.3,15.85l4.46-5.78a29.34,29.34,0,0,1-4.55,49.37Z" transform="translate(-3.52 -3.98)"/><path class="cls-2" d="M46.3,15.85A22,22,0,0,0,41.39,13l2.83-6.73a29.34,29.34,0,0,1,6.54,3.81Z" transform="translate(-3.52 -3.98)"/><path d="M23.65,27H21.19V43.57H17V27H14.08V22.61h9.58Z" transform="translate(-3.52 -3.98)"/><path d="M24.52,43.57v-21H29.6a4.92,4.92,0,0,1,3.59,1.23,4.62,4.62,0,0,1,1.26,3.46,7.12,7.12,0,0,1-.76,3.34,4.08,4.08,0,0,1-2,1.69v.06c1,.18,1.79.2,2.38,1.07a5.57,5.57,0,0,1,.89,3.2c0,1.83,0,3.29-.87,4.36s-2.67,2.62-4.25,2.62Zm3.65-17.7v4.74H29a1.88,1.88,0,0,0,1.53-.68,2.84,2.84,0,0,0,.56-1.86q0-2.2-2.3-2.2Zm0,8.09v5.27h1.2a2.13,2.13,0,0,0,1.71-.73,2.93,2.93,0,0,0,.62-2,2.73,2.73,0,0,0-.61-1.88,2.16,2.16,0,0,0-1.7-.68Z" transform="translate(-3.52 -3.98)"/><path d="M36,22.56h6.41l.91,11.1,1.1-11.1,6.67.05v21H47.11l.07-15.93L44.78,43.57H41.93L40.18,27.84l-.32,15.73H36Z" transform="translate(-3.52 -3.98)"/></svg>