<svg width="344" height="66" viewBox="0 0 344 66" fill="none" xmlns="http://www.w3.org/2000/svg">
<path d="M0 0L344 0L302.5 66H0V0Z" fill="white"/>
<path d="M74.3639 31.3138C74.3639 31.3138 74.4502 23.3017 82.819 15.7158C91.1878 8.12993 104.818 13.1302 104.818 13.1302L108.704 6.92489C109.081 6.53667 93.4102 -0.959904 79.2829 9.68204C65.0576 20.397 66.99 32.994 67.2038 33.0693L74.3639 31.3138Z" fill="#262261"/>
<path d="M110.256 16.236L114.311 10.1999C114.311 10.1999 128.634 21.1478 125.441 37.6084C122.248 54.069 108.71 59.668 108.71 59.668L107.064 51.7389C107.064 51.7389 118.453 46.0515 118.108 33.8993C117.762 21.7472 110.256 16.236 110.256 16.236Z" fill="#2B388F"/>
<path d="M139.136 30.2645C139.336 30.5264 139.443 30.8475 139.44 31.1769C139.445 31.4813 139.359 31.7803 139.195 32.0364C139.014 32.3005 138.759 32.5053 138.461 32.6251C138.084 32.7791 137.679 32.8529 137.272 32.8417H135.112V26.8738H137.198C137.568 26.8644 137.935 26.9318 138.278 27.0716C138.555 27.1845 138.794 27.373 138.969 27.6155C139.129 27.8502 139.211 28.1288 139.205 28.4125C139.209 28.6898 139.123 28.961 138.961 29.1861C138.766 29.4354 138.497 29.6161 138.192 29.7017C138.617 29.8069 138.932 29.9945 139.136 30.2645ZM135.963 27.5743V29.458H137.079C137.4 29.4724 137.718 29.3904 137.992 29.2226C138.228 29.0656 138.346 28.8152 138.346 28.4714C138.348 28.3087 138.303 28.1488 138.216 28.0111C138.123 27.8698 137.989 27.7592 137.833 27.6932C137.64 27.6108 137.431 27.5706 137.22 27.5755L135.963 27.5743ZM138.25 31.8669C138.347 31.7768 138.423 31.6672 138.474 31.5454C138.525 31.4236 138.549 31.2924 138.545 31.1605C138.552 31.0206 138.527 30.881 138.473 30.7519C138.418 30.6228 138.336 30.5073 138.232 30.414C138.023 30.2296 137.712 30.1374 137.3 30.1374H135.963V32.1459H137.291C137.733 32.1443 138.053 32.0513 138.249 31.8669H138.25Z" fill="black"/>
<path d="M143.151 26.8738L145.397 32.7887V32.8441H144.513L143.887 31.1393H141.342L140.723 32.8441H139.874V32.7887L142.119 26.8738H143.151ZM141.6 30.4399H143.63L142.616 27.6803L141.6 30.4399Z" fill="black"/>
<path d="M151.217 26.8738V32.8441H150.274L147.648 28.9753L147.53 28.7999C147.494 28.7395 147.455 28.6809 147.413 28.6245C147.348 28.5327 147.293 28.4467 147.246 28.3666C147.2 28.2866 147.158 28.2081 147.121 28.1312V32.8476H146.309V26.8738H147.204L149.907 30.8261C149.931 30.863 149.983 30.9383 150.063 31.0522C150.144 31.166 150.211 31.2704 150.266 31.3653C150.318 31.4531 150.364 31.544 150.404 31.6373V26.8738H151.217Z" fill="black"/>
<path d="M156.859 27.5837C157.397 28.0546 157.666 28.8132 157.666 29.8595C157.666 30.529 157.529 31.0863 157.256 31.5313C156.986 31.9733 156.585 32.3196 156.108 32.5215C155.559 32.7476 154.968 32.8575 154.374 32.8441H152.731V26.8738H154.53C155.544 26.8738 156.32 27.1104 156.859 27.5837ZM155.621 31.9316C155.977 31.8085 156.277 31.5637 156.47 31.2405C156.673 30.9093 156.774 30.4486 156.774 29.8583C156.774 29.0781 156.592 28.5056 156.229 28.1406C155.866 27.7756 155.304 27.5927 154.541 27.592H153.573V32.1247H154.264C154.724 32.1371 155.183 32.0719 155.621 31.9316Z" fill="black"/>
<path d="M161.248 26.8738L163.493 32.7887V32.8441H162.609L161.986 31.1393H159.44L158.821 32.8441H157.971V32.7887L160.218 26.8738H161.248ZM159.697 30.4388H161.727L160.713 27.6803L159.697 30.4388Z" fill="black"/>
<path d="M164.804 32.7746C164.458 32.6637 164.133 32.4941 163.845 32.273L164.25 31.6644C164.5 31.8569 164.783 32.0021 165.085 32.0929C165.369 32.1839 165.666 32.232 165.965 32.2354C166.408 32.2354 166.744 32.1569 166.975 31.9999C167.148 31.8588 167.265 31.661 167.306 31.4418C167.346 31.2226 167.308 30.996 167.197 30.8025C167.091 30.6596 166.952 30.5442 166.791 30.4658C166.531 30.3336 166.261 30.2211 165.984 30.1291L165.827 30.0738C165.503 29.9664 165.187 29.8325 164.884 29.6735C164.652 29.5484 164.453 29.37 164.303 29.1531C164.148 28.9117 164.071 28.6286 164.082 28.3419C164.072 28.0277 164.171 27.7198 164.363 27.4707C164.558 27.2294 164.814 27.0461 165.106 26.9409C165.421 26.8227 165.756 26.7632 166.093 26.7654C166.446 26.7633 166.798 26.8096 167.139 26.9032C167.482 27.0018 167.808 27.154 168.103 27.3541L167.716 27.9616C167.472 27.8026 167.209 27.6771 166.932 27.5884C166.656 27.5075 166.37 27.4679 166.083 27.4707C165.799 27.4627 165.519 27.5353 165.274 27.6802C165.169 27.7458 165.083 27.8387 165.027 27.949C164.97 28.0592 164.944 28.1828 164.952 28.3066C164.949 28.4432 164.985 28.5778 165.058 28.6939C165.153 28.8265 165.28 28.934 165.427 29.0071C165.662 29.1314 165.907 29.2362 166.16 29.3203L166.316 29.3756C166.654 29.4864 166.984 29.6202 167.303 29.7759C167.554 29.9063 167.772 30.0923 167.94 30.3198C168.127 30.5878 168.221 30.9102 168.207 31.237C168.218 31.5711 168.125 31.9003 167.94 32.1789C167.747 32.444 167.481 32.6461 167.173 32.7593C166.797 32.899 166.397 32.9661 165.995 32.9571C165.591 32.9603 165.189 32.8987 164.804 32.7746Z" fill="black"/>
<path d="M176.001 26.8738V27.6108H173.936V32.8441H173.087V27.6108H171.011V26.8738H176.001Z" fill="black"/>
<path d="M181.36 32.7887V32.8441H180.383L178.659 30.5129H177.773V32.8441H176.925V26.8738H178.871C179.276 26.8612 179.68 26.9354 180.054 27.0916C180.354 27.2192 180.608 27.4343 180.783 27.7085C180.949 27.9867 181.034 28.3063 181.027 28.6304C181.029 28.8999 180.974 29.1668 180.865 29.4133C180.755 29.6558 180.589 29.8688 180.381 30.0349C180.145 30.2201 179.871 30.3508 179.578 30.4176L181.36 32.7887ZM177.772 29.8124H178.741C179.202 29.8124 179.551 29.7127 179.788 29.5134C179.907 29.4089 180.001 29.2787 180.062 29.1326C180.123 28.9866 180.15 28.8285 180.141 28.6704C180.151 28.5207 180.127 28.3708 180.07 28.2319C180.013 28.093 179.926 27.9688 179.814 27.8686C179.595 27.6842 179.274 27.592 178.85 27.592H177.77L177.772 29.8124Z" fill="black"/>
<path d="M184.961 26.8738L187.21 32.7887V32.8441H186.326L185.7 31.1393H183.154L182.535 32.8441H181.682V32.7887L183.927 26.8738H184.961ZM183.41 30.4388H185.442L184.426 27.6803L183.41 30.4388Z" fill="black"/>
<path d="M193.027 26.8738V32.8441H192.084L189.458 28.9753L189.34 28.7999C189.304 28.7395 189.264 28.6809 189.222 28.6245C189.158 28.5327 189.102 28.4467 189.056 28.3666C189.01 28.2866 188.968 28.2081 188.931 28.1312V32.8476H188.119V26.8738H189.014L191.716 30.8261C191.741 30.863 191.793 30.9383 191.873 31.0522C191.953 31.166 192.021 31.2704 192.076 31.3653C192.127 31.4531 192.173 31.544 192.214 31.6373V26.8738H193.027Z" fill="black"/>
<path d="M195.02 32.7746C194.674 32.6637 194.349 32.4941 194.061 32.273L194.466 31.6644C194.716 31.8569 194.999 32.0021 195.301 32.0929C195.585 32.1839 195.882 32.232 196.181 32.2354C196.623 32.2354 196.96 32.1569 197.191 31.9999C197.364 31.8588 197.481 31.661 197.522 31.4418C197.562 31.2226 197.524 30.996 197.413 30.8025C197.306 30.6596 197.167 30.5442 197.007 30.4658C196.747 30.3336 196.477 30.221 196.2 30.1291L196.043 30.0738C195.718 29.9664 195.403 29.8325 195.1 29.6735C194.868 29.5484 194.669 29.37 194.519 29.1531C194.364 28.9117 194.286 28.6286 194.297 28.3419C194.288 28.0277 194.387 27.7198 194.579 27.4707C194.773 27.2294 195.03 27.0461 195.322 26.9409C195.637 26.8227 195.971 26.7632 196.308 26.7654C196.662 26.7633 197.014 26.8096 197.355 26.9032C197.698 27.0018 198.024 27.154 198.319 27.3541L197.936 27.9616C197.693 27.8026 197.429 27.6771 197.152 27.5884C196.877 27.5075 196.591 27.4678 196.304 27.4707C196.019 27.4599 195.737 27.5301 195.491 27.6732C195.386 27.7388 195.3 27.8316 195.244 27.9419C195.187 28.0522 195.161 28.1757 195.169 28.2995C195.166 28.4362 195.202 28.5707 195.275 28.6869C195.37 28.8195 195.497 28.9269 195.644 29C195.879 29.1244 196.124 29.2291 196.377 29.3132L196.533 29.3685C196.871 29.4794 197.201 29.6131 197.52 29.7688C197.771 29.8992 197.989 30.0853 198.157 30.3128C198.345 30.5807 198.439 30.9031 198.424 31.2299C198.435 31.564 198.342 31.8932 198.157 32.1718C197.965 32.4368 197.699 32.6388 197.392 32.7522C197.015 32.8919 196.615 32.959 196.213 32.95C195.808 32.9558 195.406 32.8966 195.02 32.7746Z" fill="black"/>
<path d="M202.795 27.0998C203.103 27.2301 203.364 27.4521 203.542 27.7356C203.712 28.0242 203.798 28.3544 203.791 28.6892C203.795 29.0343 203.708 29.3744 203.537 29.6747C203.357 29.9805 203.091 30.2263 202.771 30.3811C202.379 30.5673 201.947 30.6573 201.512 30.6436H200.442V32.8452H199.594V26.8738H201.59C202.003 26.863 202.414 26.94 202.795 27.0998ZM202.541 29.6099C202.665 29.4992 202.761 29.3623 202.824 29.2092C202.887 29.0562 202.915 28.8909 202.906 28.7257C202.906 28.3576 202.793 28.0766 202.569 27.8827C202.344 27.6889 202.01 27.5923 201.568 27.5931H200.442V29.9243H201.448C201.936 29.9235 202.3 29.8187 202.541 29.6099Z" fill="black"/>
<path d="M205.715 32.5627C205.299 32.3017 204.97 31.9214 204.773 31.4713C204.551 30.9568 204.442 30.4007 204.454 29.8407C204.454 29.1531 204.584 28.5789 204.842 28.1182C205.076 27.6816 205.436 27.3252 205.875 27.0951C206.317 26.8709 206.808 26.757 207.304 26.7631C207.839 26.7469 208.366 26.8829 208.826 27.1551C209.243 27.4162 209.571 27.7965 209.769 28.2465C209.991 28.7611 210.099 29.3171 210.087 29.8772C210.087 30.5655 209.958 31.1397 209.699 31.5996C209.466 32.0362 209.106 32.3927 208.667 32.6227C208.224 32.8469 207.734 32.9608 207.237 32.9547C206.703 32.971 206.175 32.835 205.715 32.5627ZM208.33 31.9363C208.625 31.7328 208.854 31.4458 208.985 31.1122C209.137 30.7218 209.211 30.3054 209.202 29.8866C209.211 29.4583 209.14 29.0321 208.995 28.6292C208.873 28.2917 208.653 27.9982 208.363 27.7862C208.051 27.5745 207.679 27.4681 207.302 27.4825C206.916 27.4679 206.534 27.5723 206.209 27.7815C205.914 27.9851 205.686 28.272 205.554 28.6056C205.402 28.9961 205.328 29.4125 205.337 29.8312C205.329 30.2617 205.4 30.69 205.548 31.0945C205.67 31.4321 205.89 31.7256 206.18 31.9375C206.492 32.1492 206.864 32.2557 207.241 32.2413C207.628 32.254 208.009 32.1476 208.333 31.9363H208.33Z" fill="black"/>
<path d="M215.698 32.7887V32.844H214.721L212.996 30.5129H212.111V32.844H211.262V26.8738H213.208C213.614 26.861 214.018 26.9353 214.393 27.0916C214.693 27.2192 214.946 27.4342 215.122 27.7085C215.288 27.9867 215.373 28.3062 215.365 28.6304C215.368 28.8998 215.313 29.1668 215.204 29.4133C215.094 29.6556 214.929 29.8687 214.721 30.0349C214.485 30.2201 214.211 30.3508 213.918 30.4176L215.698 32.7887ZM212.11 29.8124H213.079C213.54 29.8124 213.889 29.7127 214.126 29.5134C214.245 29.4089 214.339 29.2787 214.4 29.1327C214.461 28.9866 214.488 28.8285 214.479 28.6704C214.489 28.5207 214.464 28.3707 214.408 28.2319C214.351 28.093 214.263 27.9688 214.151 27.8686C213.933 27.6842 213.612 27.5919 213.187 27.5919H212.108L212.11 29.8124Z" fill="black"/>
<path d="M220.803 26.8738V27.6108H218.733V32.8441H217.884V27.6108H215.809V26.8738H220.803Z" fill="black"/>
<path d="M223.524 26.8738L225.77 32.7887V32.8441H224.886L224.26 31.1393H221.714L221.095 32.8441H220.245V32.7887L222.491 26.8738H223.524ZM221.973 30.4388H224.003L222.989 27.6803L221.973 30.4388Z" fill="black"/>
<path d="M230.811 27.5837C231.349 28.0546 231.619 28.8132 231.619 29.8595C231.619 30.529 231.482 31.0863 231.208 31.5313C230.939 31.9733 230.537 32.3196 230.06 32.5215C229.511 32.7476 228.921 32.8575 228.326 32.8441H226.683V26.8738H228.482C229.497 26.8738 230.273 27.1104 230.811 27.5837ZM229.579 31.9316C229.935 31.8085 230.236 31.5637 230.428 31.2405C230.631 30.9093 230.732 30.4486 230.732 29.8583C230.732 29.0781 230.551 28.5056 230.188 28.1406C229.825 27.7756 229.262 27.5927 228.5 27.592H227.531V32.1247H228.229C228.687 32.1365 229.143 32.0712 229.579 31.9316Z" fill="black"/>
<path d="M233.712 32.5627C233.295 32.3017 232.967 31.9214 232.769 31.4713C232.547 30.9568 232.439 30.4007 232.451 29.8407C232.451 29.1531 232.58 28.5789 232.839 28.1182C233.072 27.6816 233.432 27.3252 233.871 27.0951C234.314 26.8709 234.805 26.757 235.301 26.7631C235.835 26.7469 236.363 26.8829 236.823 27.1551C237.239 27.4162 237.568 27.7965 237.766 28.2465C237.987 28.7611 238.096 29.3171 238.084 29.8772C238.084 30.5655 237.955 31.1397 237.696 31.5996C237.462 32.0362 237.102 32.3927 236.664 32.6227C236.221 32.8469 235.73 32.9608 235.234 32.9547C234.7 32.971 234.172 32.835 233.712 32.5627ZM236.326 31.9363C236.622 31.7328 236.85 31.4458 236.982 31.1122C237.134 30.7218 237.207 30.3054 237.199 29.8866C237.207 29.4583 237.137 29.0321 236.991 28.6292C236.87 28.292 236.651 27.9986 236.362 27.7862C236.05 27.5745 235.678 27.4681 235.301 27.4825C234.915 27.4679 234.533 27.5723 234.208 27.7815C233.913 27.9851 233.685 28.272 233.553 28.6056C233.401 28.9961 233.327 29.4125 233.336 29.8312C233.326 30.2614 233.395 30.6896 233.541 31.0945C233.663 31.4321 233.883 31.7256 234.173 31.9375C234.485 32.1492 234.857 32.2557 235.234 32.2413C235.621 32.254 236.002 32.1476 236.326 31.9363Z" fill="black"/>
<path d="M243.691 32.7887V32.844H242.713L240.989 30.5129H240.104V32.844H239.255V26.8738H241.201C241.607 26.861 242.011 26.9353 242.386 27.0916C242.685 27.2192 242.939 27.4342 243.114 27.7085C243.281 27.9867 243.365 28.3062 243.358 28.6304C243.361 28.8998 243.306 29.1668 243.197 29.4133C243.087 29.6558 242.921 29.8688 242.712 30.0349C242.476 30.2201 242.202 30.3508 241.91 30.4176L243.691 32.7887ZM240.103 29.8124H241.076C241.537 29.8124 241.886 29.7127 242.123 29.5134C242.242 29.4089 242.336 29.2787 242.397 29.1327C242.458 28.9866 242.486 28.8285 242.477 28.6704C242.486 28.5207 242.462 28.3707 242.405 28.2319C242.348 28.093 242.261 27.9688 242.149 27.8686C241.93 27.6842 241.609 27.5919 241.185 27.5919H240.105L240.103 29.8124Z" fill="black"/>
<path d="M247.293 26.8738L249.538 32.7887V32.8441H248.654L248.031 31.1393H245.485L244.866 32.8441H244.016V32.7887L246.263 26.8738H247.293ZM245.742 30.4388H247.771L246.758 27.6803L245.742 30.4388Z" fill="black"/>
<path d="M250.84 32.7746C250.493 32.6637 250.169 32.494 249.88 32.273L250.286 31.6644C250.535 31.8569 250.818 32.0021 251.12 32.0929C251.405 32.1839 251.702 32.2319 252.001 32.2354C252.443 32.2354 252.78 32.1569 253.011 31.9999C253.184 31.8588 253.301 31.661 253.341 31.4418C253.382 31.2226 253.343 30.996 253.232 30.8025C253.126 30.6596 252.987 30.5442 252.827 30.4658C252.567 30.3336 252.297 30.221 252.019 30.1291L251.863 30.0738C251.538 29.9664 251.223 29.8325 250.92 29.6735C250.688 29.5484 250.488 29.37 250.339 29.1531C250.183 28.9117 250.106 28.6286 250.117 28.3419C250.107 28.0277 250.207 27.7198 250.399 27.4707C250.593 27.2294 250.85 27.0461 251.141 26.9409C251.457 26.8227 251.791 26.7632 252.128 26.7654C252.481 26.7633 252.834 26.8096 253.175 26.9032C253.518 27.0018 253.843 27.154 254.139 27.3541L253.751 27.9616C253.508 27.8026 253.244 27.6771 252.967 27.5884C252.692 27.5075 252.406 27.4678 252.118 27.4707C251.834 27.4599 251.552 27.5301 251.306 27.6732C251.201 27.7388 251.115 27.8316 251.058 27.9419C251.002 28.0522 250.976 28.1757 250.983 28.2995C250.98 28.4362 251.017 28.5707 251.089 28.6869C251.185 28.8195 251.312 28.9269 251.458 29C251.694 29.1244 251.939 29.2291 252.192 29.3132L252.348 29.3685C252.686 29.4794 253.016 29.6131 253.335 29.7688C253.586 29.8992 253.804 30.0853 253.971 30.3128C254.159 30.5807 254.253 30.9031 254.239 31.2299C254.25 31.564 254.156 31.8932 253.971 32.1718C253.78 32.4368 253.513 32.6388 253.206 32.7522C252.83 32.8919 252.43 32.959 252.028 32.95C251.625 32.9553 251.224 32.8961 250.84 32.7746Z" fill="black"/>
<path d="M140.323 37.9302V37.9855L138.109 41.5729V43.904H137.26V41.5493L135.112 37.9926V37.9372H136.042L137.711 40.8029L139.444 37.9372L140.323 37.9302Z" fill="black"/>
<path d="M147.578 38.6389C148.116 39.1099 148.385 39.8685 148.385 40.9147C148.385 41.5842 148.248 42.1415 147.975 42.5865C147.705 43.0285 147.304 43.3748 146.827 43.5767C146.277 43.8028 145.687 43.9127 145.093 43.8993H143.45V37.9302H145.248C146.261 37.9302 147.038 38.1664 147.578 38.6389ZM146.346 42.9857C146.701 42.8626 147.002 42.6178 147.194 42.2946C147.397 41.9633 147.499 41.5026 147.499 40.9124C147.499 40.1322 147.317 39.5596 146.954 39.1946C146.591 38.8296 146.028 38.6468 145.266 38.646H144.292V43.1787H144.984C145.446 43.1917 145.906 43.1264 146.346 42.9857Z" fill="black"/>
<path d="M150.404 43.1811H153.336V43.8993H149.555V37.9302H153.29V38.6483H150.404V40.5132H152.931L152.839 41.2138H150.404V43.1811Z" fill="black"/>
<path d="M161.168 37.9302V38.6672H159.102V43.9005H158.253V38.6672H156.177V37.9302H161.168Z" fill="black"/>
<path d="M166.526 43.8451V43.9005H165.549L163.824 41.5728H162.938V43.904H162.091V37.9302H164.036C164.442 37.9183 164.847 37.9938 165.221 38.1515C165.521 38.2791 165.775 38.4942 165.95 38.7684C166.116 39.0466 166.201 39.3662 166.194 39.6903C166.196 39.9598 166.141 40.2267 166.032 40.4732C165.922 40.7157 165.756 40.9287 165.548 41.0948C165.312 41.28 165.038 41.4107 164.745 41.4775L166.526 43.8451ZM162.938 40.8664H163.907C164.368 40.8664 164.717 40.7668 164.954 40.5674C165.073 40.4629 165.167 40.3327 165.228 40.1867C165.289 40.0406 165.316 39.8825 165.307 39.7244C165.317 39.5747 165.293 39.4248 165.236 39.2859C165.179 39.147 165.092 39.0228 164.98 38.9227C164.761 38.7382 164.44 38.646 164.016 38.646H162.936L162.938 40.8664Z" fill="black"/>
<path d="M170.128 37.9302L172.374 43.8451V43.9005H171.49L170.864 42.1957H168.318L167.699 43.9005H166.849V43.8451L169.095 37.9302H170.128ZM168.574 41.4952H170.604L169.591 38.7308L168.574 41.4952Z" fill="black"/>
<path d="M178.194 37.9302V43.9005H177.251L174.623 40.0305L174.505 39.8551C174.469 39.7947 174.429 39.7361 174.387 39.6797C174.323 39.5879 174.267 39.5019 174.221 39.4218C174.175 39.3418 174.133 39.2633 174.096 39.1864V43.9028H173.289V37.9302H174.183L176.886 41.8825C176.91 41.9194 176.963 41.9947 177.043 42.1085C177.123 42.2223 177.19 42.3267 177.245 42.4217C177.297 42.5095 177.343 42.6003 177.383 42.6937V37.9302H178.194Z" fill="black"/>
<path d="M180.186 43.831C179.84 43.7201 179.515 43.5504 179.227 43.3294L179.632 42.7208C179.882 42.9133 180.165 43.0585 180.467 43.1493C180.751 43.2403 181.048 43.2883 181.347 43.2918C181.789 43.2918 182.126 43.2133 182.357 43.0563C182.53 42.9152 182.647 42.7174 182.688 42.4982C182.728 42.2789 182.69 42.0524 182.579 41.8589C182.472 41.716 182.333 41.6006 182.173 41.5222C181.913 41.39 181.643 41.2774 181.366 41.1855L181.209 41.1302C180.884 41.0227 180.569 40.8889 180.266 40.7299C180.034 40.6048 179.835 40.4264 179.685 40.2095C179.53 39.9681 179.452 39.685 179.463 39.3983C179.454 39.0841 179.553 38.7762 179.745 38.5271C179.939 38.2858 180.196 38.1025 180.488 37.9973C180.803 37.8791 181.138 37.8196 181.474 37.8218C181.828 37.8197 182.18 37.866 182.521 37.9596C182.864 38.0582 183.19 38.2104 183.485 38.4105L183.097 39.018C182.854 38.859 182.59 38.7335 182.314 38.6448C182.038 38.5639 181.752 38.5242 181.465 38.5271C181.18 38.5163 180.899 38.5865 180.653 38.7296C180.547 38.7952 180.462 38.888 180.405 38.9983C180.348 39.1085 180.322 39.2321 180.33 39.3559C180.327 39.4926 180.364 39.6271 180.436 39.7433C180.532 39.8759 180.658 39.9833 180.805 40.0564C181.04 40.1808 181.285 40.2855 181.538 40.3696L181.695 40.4249C182.032 40.5357 182.362 40.6695 182.681 40.8252C182.932 40.9556 183.15 41.1417 183.318 41.3692C183.506 41.6371 183.6 41.9595 183.585 42.2863C183.596 42.6204 183.503 42.9496 183.318 43.2282C183.126 43.4932 182.86 43.6952 182.553 43.8086C182.176 43.9483 181.776 44.0154 181.374 44.0064C180.971 44.0117 180.57 43.9525 180.186 43.831Z" fill="black"/>
<path d="M190.83 37.9302V43.9005H190.005V39.3088C189.904 39.5913 189.784 39.8667 189.645 40.133L188.206 42.9244H187.381L185.966 40.133C185.888 39.976 185.812 39.8272 185.74 39.6868C185.668 39.5463 185.611 39.4219 185.569 39.3135V43.8922H184.757V37.9302H185.726L187.079 40.565C187.357 41.086 187.6 41.6244 187.808 42.1768C187.888 41.9364 187.982 41.7005 188.089 41.4704C188.209 41.2067 188.359 40.9057 188.537 40.5674L189.893 37.9325L190.83 37.9302Z" fill="black"/>
<path d="M192.343 43.9005V37.9302H193.192V43.9005H192.343Z" fill="black"/>
<path d="M195.184 43.831C194.838 43.7201 194.513 43.5504 194.224 43.3294L194.63 42.7208C194.879 42.9133 195.162 43.0585 195.464 43.1493C195.749 43.2403 196.046 43.2883 196.345 43.2918C196.787 43.2918 197.124 43.2133 197.355 43.0563C197.528 42.9152 197.645 42.7174 197.686 42.4982C197.726 42.2789 197.688 42.0524 197.577 41.8589C197.47 41.716 197.331 41.6006 197.171 41.5222C196.911 41.39 196.641 41.2774 196.364 41.1855L196.207 41.1302C195.882 41.0227 195.567 40.8889 195.264 40.7299C195.032 40.6048 194.833 40.4264 194.683 40.2095C194.528 39.9681 194.45 39.685 194.461 39.3983C194.451 39.0841 194.551 38.7762 194.743 38.5271C194.937 38.2858 195.194 38.1025 195.486 37.9973C195.801 37.8791 196.135 37.8196 196.472 37.8218C196.826 37.8197 197.178 37.866 197.519 37.9596C197.862 38.0582 198.187 38.2104 198.483 38.4105L198.095 39.018C197.852 38.859 197.588 38.7335 197.311 38.6448C197.036 38.5639 196.75 38.5242 196.463 38.5271C196.178 38.5163 195.897 38.5865 195.651 38.7296C195.545 38.7952 195.46 38.888 195.403 38.9983C195.346 39.1085 195.32 39.2321 195.328 39.3559C195.325 39.4926 195.362 39.6271 195.434 39.7433C195.53 39.8759 195.656 39.9833 195.803 40.0564C196.038 40.1808 196.283 40.2855 196.536 40.3696L196.693 40.4249C197.03 40.5357 197.36 40.6695 197.679 40.8252C197.93 40.9556 198.148 41.1417 198.316 41.3692C198.504 41.6371 198.598 41.9595 198.583 42.2863C198.594 42.6204 198.501 42.9496 198.316 43.2282C198.124 43.4932 197.858 43.6952 197.551 43.8086C197.174 43.9483 196.774 44.0154 196.372 44.0064C195.969 44.0117 195.568 43.9525 195.184 43.831Z" fill="black"/>
<path d="M199.759 43.9005V37.9302H200.607V43.9005H199.759Z" fill="black"/>
<path d="M203.042 43.6191C202.625 43.3581 202.297 42.9778 202.099 42.5277C201.877 42.0132 201.769 41.4571 201.781 40.8971C201.781 40.2095 201.91 39.6354 202.169 39.1746C202.403 38.738 202.762 38.3816 203.201 38.1515C203.644 37.9273 204.135 37.8134 204.631 37.8195C205.165 37.8033 205.693 37.9393 206.153 38.2116C206.57 38.4726 206.898 38.8529 207.096 39.3029C207.317 39.8175 207.426 40.3735 207.414 40.9336C207.414 41.6219 207.285 42.1961 207.026 42.656C206.792 43.0926 206.433 43.4491 205.994 43.6791C205.551 43.9033 205.06 44.0172 204.564 44.0111C204.03 44.0274 203.502 43.8914 203.042 43.6191ZM205.656 42.9927C205.952 42.7892 206.18 42.5022 206.312 42.1686C206.463 41.7781 206.537 41.3617 206.528 40.943C206.536 40.5159 206.465 40.0909 206.32 39.6891C206.198 39.3516 205.978 39.0582 205.688 38.8461C205.376 38.6344 205.004 38.528 204.627 38.5424C204.241 38.5279 203.86 38.6322 203.535 38.8414C203.239 39.045 203.011 39.3319 202.879 39.6656C202.728 40.056 202.654 40.4724 202.663 40.8912C202.656 41.3185 202.727 41.7435 202.874 42.145C202.995 42.4826 203.215 42.7761 203.505 42.988C203.817 43.1997 204.189 43.3062 204.566 43.2918C204.952 43.3058 205.332 43.2014 205.656 42.9927ZM204.149 37.5063L203.845 37.1472L205.284 35.977L205.756 36.6316L204.149 37.5063Z" fill="black"/>
<path d="M213.492 37.9302V43.9005H212.549L209.922 40.0305L209.805 39.8551C209.792 39.8308 209.753 39.7723 209.687 39.6797C209.621 39.5871 209.565 39.5011 209.521 39.4218C209.474 39.3434 209.433 39.2649 209.396 39.1864V43.9028H208.583V37.9302H209.475L212.186 41.8825C212.21 41.9194 212.262 41.9947 212.342 42.1085C212.423 42.2223 212.49 42.3267 212.545 42.4217C212.596 42.5095 212.643 42.6003 212.683 42.6937V37.9302H213.492Z" fill="black"/>
<path d="M101.024 54.4107L102.663 61.4763C102.663 61.4763 87.7385 64.4928 77.9876 56.0466C68.2367 47.6005 67.7197 39.5006 67.7197 39.5006L74.9676 37.8631C74.9676 37.8631 77.0377 47.2581 84.6307 51.8243C92.2238 56.3906 101.024 54.4099 101.024 54.4099" fill="#25A9E0"/>
<path d="M86.9854 26.9579H84.5251V43.5746H80.3578V26.9579H77.4102V22.6059H86.9854V26.9579Z" fill="black"/>
<path d="M87.8499 43.5746V22.5563H92.9305C94.4883 22.5563 95.6854 22.9655 96.5218 23.7838C97.3583 24.6022 97.777 25.7555 97.778 27.2437C97.778 28.3229 97.5231 29.7733 97.0139 30.5824C96.5047 31.3914 95.8533 31.9544 95.0628 32.2704V32.3255C96.0547 32.5025 96.8507 32.5219 97.4422 33.3954C98.0338 34.2689 98.333 35.3365 98.333 36.5905C98.333 38.4229 98.3828 39.8764 97.4679 40.9502C96.5529 42.0241 94.7969 43.5746 93.2135 43.5746H87.8499ZM91.5033 25.8764V30.6196H92.3786C93.0274 30.6196 93.5384 30.394 93.9115 29.9426C94.2847 29.4912 94.4715 28.8701 94.472 28.0791C94.472 26.6096 93.7063 25.8748 92.175 25.8748L91.5033 25.8764ZM91.5033 33.9677V39.2413H92.6997C93.4252 39.2413 93.9952 38.9996 94.4098 38.5161C94.8244 38.0326 95.0301 37.3721 95.027 36.5346C95.027 35.7349 94.8244 35.1072 94.4191 34.6517C94.0139 34.1962 93.4477 33.9685 92.7207 33.9685L91.5033 33.9677Z" fill="black"/>
<path d="M99.3115 22.5555H105.718L106.624 33.6587L107.724 22.5555L114.39 22.606V43.5746H110.441L110.507 27.6474L108.113 43.5746H105.265L103.518 27.8415L103.194 43.5746H99.3115V22.5555Z" fill="black"/>
</svg>
