<svg id="Layer_1" data-name="Layer 1" xmlns="http://www.w3.org/2000/svg" viewBox="0 0 187.24 58"><defs><style>.cls-1{fill:#fff;}</style></defs><title>logoWhite</title><path class="cls-1" d="M26.36,31.31s.09-8,8.46-15.6,22-2.59,22-2.59L60.7,6.92C61.08,6.54,45.41-1,31.28,9.68S19,33,19.2,33.07Z" transform="translate(-19 -4)"/><path class="cls-1" d="M62.26,16.24l4.06-6S80.63,21.15,77.44,37.61A30.69,30.69,0,0,1,60.71,59.67l-1.65-7.93s11.39-5.69,11-17.84S62.26,16.24,62.26,16.24Z" transform="translate(-19 -4)"/><path class="cls-1" d="M91.14,30.26a1.48,1.48,0,0,1,.3.91,1.55,1.55,0,0,1-.24.86,1.62,1.62,0,0,1-.73.59,2.93,2.93,0,0,1-1.19.22H87.11v-6H89.2a2.68,2.68,0,0,1,1.08.2,1.59,1.59,0,0,1,.69.54,1.36,1.36,0,0,1,.24.8,1.29,1.29,0,0,1-.24.77,1.49,1.49,0,0,1-.77.52A1.62,1.62,0,0,1,91.14,30.26ZM88,27.57v1.88h1.12a1.61,1.61,0,0,0,.91-.24A.94.94,0,0,0,90.22,28a.86.86,0,0,0-.38-.32,1.47,1.47,0,0,0-.61-.12Zm2.29,4.29a.93.93,0,0,0,.29-.71.94.94,0,0,0-.07-.41,1,1,0,0,0-.24-.34,1.37,1.37,0,0,0-.93-.28H88v2h1.33a1.38,1.38,0,0,0,1-.28Z" transform="translate(-19 -4)"/><path class="cls-1" d="M95.15,26.87l2.25,5.91v.06h-.88l-.63-1.7H93.34l-.62,1.7h-.85v-.06l2.25-5.91ZM93.6,30.44h2l-1-2.76Z" transform="translate(-19 -4)"/><path class="cls-1" d="M103.22,26.87v6h-.94L99.65,29l-.12-.18-.12-.18-.17-.26-.12-.24v4.72h-.81v-6h.89l2.7,4,.16.23c.08.11.15.22.2.31a2.36,2.36,0,0,1,.14.27V26.87Z" transform="translate(-19 -4)"/><path class="cls-1" d="M108.86,27.58a2.88,2.88,0,0,1,.81,2.28,3.15,3.15,0,0,1-.41,1.67,2.48,2.48,0,0,1-1.15,1,4.3,4.3,0,0,1-1.73.32h-1.64v-6h1.8A3.42,3.42,0,0,1,108.86,27.58Zm-1.24,4.35a1.6,1.6,0,0,0,.85-.69,2.65,2.65,0,0,0,.3-1.38,2.35,2.35,0,0,0-.54-1.72,2.3,2.3,0,0,0-1.69-.55h-1v4.53h.69A4.09,4.09,0,0,0,107.62,31.93Z" transform="translate(-19 -4)"/><path class="cls-1" d="M113.25,26.87l2.24,5.91v.06h-.88l-.62-1.7h-2.55l-.62,1.7H110v-.06l2.25-5.91Zm-1.55,3.57h2l-1-2.76Z" transform="translate(-19 -4)"/><path class="cls-1" d="M116.8,32.77a3.16,3.16,0,0,1-1-.5l.4-.61a2.59,2.59,0,0,0,.84.43,3,3,0,0,0,.88.14,1.8,1.8,0,0,0,1-.24.94.94,0,0,0,.22-1.2,1.11,1.11,0,0,0-.41-.34,5.85,5.85,0,0,0-.81-.34l-.16-.06a6.29,6.29,0,0,1-.94-.4,1.67,1.67,0,0,1-.58-.52,1.4,1.4,0,0,1-.22-.81,1.36,1.36,0,0,1,.28-.87,1.69,1.69,0,0,1,.74-.53,2.76,2.76,0,0,1,1-.18,3.87,3.87,0,0,1,1,.14,3.38,3.38,0,0,1,1,.45l-.39.61a3.25,3.25,0,0,0-.78-.37,2.92,2.92,0,0,0-.85-.12,1.5,1.5,0,0,0-.81.21.69.69,0,0,0-.32.63.7.7,0,0,0,.11.39,1,1,0,0,0,.37.31,4.82,4.82,0,0,0,.73.31l.16.06a7.77,7.77,0,0,1,1,.4,1.85,1.85,0,0,1,.64.54,1.49,1.49,0,0,1,.27.92,1.61,1.61,0,0,1-.27.94,1.65,1.65,0,0,1-.77.58A3.18,3.18,0,0,1,118,33,3.78,3.78,0,0,1,116.8,32.77Z" transform="translate(-19 -4)"/><path class="cls-1" d="M128,26.87v.74h-2.07v5.23h-.85V27.61H123v-.74Z" transform="translate(-19 -4)"/><path class="cls-1" d="M133.36,32.79v.06h-1l-1.72-2.33h-.89v2.33h-.85v-6h1.95a2.84,2.84,0,0,1,1.18.22,1.61,1.61,0,0,1,.73.62,1.73,1.73,0,0,1,.24.92,1.9,1.9,0,0,1-.16.78,1.69,1.69,0,0,1-.48.62,2,2,0,0,1-.8.38Zm-3.59-3h1a1.59,1.59,0,0,0,1-.3,1,1,0,0,0,.35-.84,1,1,0,0,0-.33-.8,1.46,1.46,0,0,0-1-.28h-1.08Z" transform="translate(-19 -4)"/><path class="cls-1" d="M137,26.87l2.25,5.91v.06h-.88l-.63-1.7h-2.55l-.62,1.7h-.85v-.06l2.24-5.91Zm-1.55,3.57h2l-1-2.76Z" transform="translate(-19 -4)"/><path class="cls-1" d="M145,26.87v6h-.94L141.46,29l-.12-.18-.12-.18-.17-.26-.12-.24v4.72h-.81v-6h.9l2.7,4,.16.23c.08.11.15.22.2.31a2.72,2.72,0,0,1,.14.27V26.87Z" transform="translate(-19 -4)"/><path class="cls-1" d="M147,32.77a3.16,3.16,0,0,1-1-.5l.4-.61a2.59,2.59,0,0,0,.83.43,3,3,0,0,0,.88.14,1.8,1.8,0,0,0,1-.24.94.94,0,0,0,.22-1.2,1.13,1.13,0,0,0-.41-.34,5.84,5.84,0,0,0-.81-.34l-.16-.06a6.25,6.25,0,0,1-.94-.4,1.67,1.67,0,0,1-.58-.52,1.4,1.4,0,0,1-.22-.81,1.36,1.36,0,0,1,.28-.87,1.69,1.69,0,0,1,.74-.53,2.75,2.75,0,0,1,1-.18,3.87,3.87,0,0,1,1,.14,3.38,3.38,0,0,1,1,.45l-.38.61a3.23,3.23,0,0,0-.78-.37,2.9,2.9,0,0,0-.85-.12,1.5,1.5,0,0,0-.81.2.69.69,0,0,0-.32.63.7.7,0,0,0,.11.39,1,1,0,0,0,.37.31,4.81,4.81,0,0,0,.73.31l.16.06a7.78,7.78,0,0,1,1,.4,1.86,1.86,0,0,1,.64.54,1.48,1.48,0,0,1,.27.92,1.61,1.61,0,0,1-.27.94,1.65,1.65,0,0,1-.76.58,3.19,3.19,0,0,1-1.18.2A3.78,3.78,0,0,1,147,32.77Z" transform="translate(-19 -4)"/><path class="cls-1" d="M154.79,27.1a1.63,1.63,0,0,1,.75.64,1.8,1.8,0,0,1,.25,1,2,2,0,0,1-.25,1,1.8,1.8,0,0,1-.77.71,2.73,2.73,0,0,1-1.26.26h-1.07v2.2h-.85v-6h2A2.92,2.92,0,0,1,154.79,27.1Zm-.25,2.51a1.09,1.09,0,0,0,.28-.4,1.11,1.11,0,0,0,.08-.48,1.05,1.05,0,0,0-.34-.84,1.49,1.49,0,0,0-1-.29h-1.13v2.33h1A1.64,1.64,0,0,0,154.54,29.61Z" transform="translate(-19 -4)"/><path class="cls-1" d="M157.71,32.56a2.45,2.45,0,0,1-.94-1.09,3.91,3.91,0,0,1-.32-1.63,3.49,3.49,0,0,1,.39-1.72,2.48,2.48,0,0,1,1-1,3.08,3.08,0,0,1,1.43-.33,2.82,2.82,0,0,1,1.52.39,2.45,2.45,0,0,1,.94,1.09,3.9,3.9,0,0,1,.32,1.63,3.47,3.47,0,0,1-.39,1.72,2.47,2.47,0,0,1-1,1,3.08,3.08,0,0,1-1.43.33A2.82,2.82,0,0,1,157.71,32.56Zm2.62-.63a1.8,1.8,0,0,0,.65-.82,3.19,3.19,0,0,0,.22-1.23,3.5,3.5,0,0,0-.21-1.26,1.8,1.8,0,0,0-.63-.84,1.77,1.77,0,0,0-1.06-.3,1.89,1.89,0,0,0-1.09.3,1.81,1.81,0,0,0-.65.82,3.19,3.19,0,0,0-.22,1.23,3.49,3.49,0,0,0,.21,1.26,1.8,1.8,0,0,0,.63.84,1.77,1.77,0,0,0,1.06.3,1.89,1.89,0,0,0,1.09-.3Z" transform="translate(-19 -4)"/><path class="cls-1" d="M167.7,32.79v.06h-1L165,30.51h-.89v2.33h-.85v-6h1.95a2.85,2.85,0,0,1,1.19.22,1.62,1.62,0,0,1,.73.62,1.72,1.72,0,0,1,.24.92,1.88,1.88,0,0,1-.16.78,1.69,1.69,0,0,1-.48.62,2,2,0,0,1-.8.38Zm-3.59-3h1a1.59,1.59,0,0,0,1-.3,1,1,0,0,0,.35-.84,1,1,0,0,0-.33-.8,1.46,1.46,0,0,0-1-.28h-1.08Z" transform="translate(-19 -4)"/><path class="cls-1" d="M172.8,26.87v.74h-2.07v5.23h-.85V27.61h-2.07v-.74Z" transform="translate(-19 -4)"/><path class="cls-1" d="M175.52,26.87l2.25,5.91v.06h-.88l-.63-1.7h-2.55l-.62,1.7h-.85v-.06l2.25-5.91ZM174,30.44h2l-1-2.76Z" transform="translate(-19 -4)"/><path class="cls-1" d="M182.81,27.58a2.88,2.88,0,0,1,.81,2.28,3.14,3.14,0,0,1-.41,1.67,2.47,2.47,0,0,1-1.15,1,4.3,4.3,0,0,1-1.73.32h-1.64v-6h1.8A3.42,3.42,0,0,1,182.81,27.58Zm-1.23,4.35a1.59,1.59,0,0,0,.85-.69,2.65,2.65,0,0,0,.3-1.38,2.35,2.35,0,0,0-.54-1.72,2.3,2.3,0,0,0-1.69-.55h-1v4.53h.7A4.08,4.08,0,0,0,181.58,31.93Z" transform="translate(-19 -4)"/><path class="cls-1" d="M185.71,32.56a2.45,2.45,0,0,1-.94-1.09,3.9,3.9,0,0,1-.32-1.63,3.48,3.48,0,0,1,.39-1.72,2.47,2.47,0,0,1,1-1,3.08,3.08,0,0,1,1.43-.33,2.82,2.82,0,0,1,1.52.39,2.46,2.46,0,0,1,.94,1.09,3.92,3.92,0,0,1,.32,1.63,3.47,3.47,0,0,1-.39,1.72,2.48,2.48,0,0,1-1,1,3.08,3.08,0,0,1-1.43.33A2.82,2.82,0,0,1,185.71,32.56Zm2.61-.63a1.81,1.81,0,0,0,.66-.82,3.21,3.21,0,0,0,.22-1.23,3.5,3.5,0,0,0-.21-1.26,1.8,1.8,0,0,0-.63-.84,1.77,1.77,0,0,0-1.06-.3,1.89,1.89,0,0,0-1.09.3,1.81,1.81,0,0,0-.65.82,3.19,3.19,0,0,0-.22,1.23,3.48,3.48,0,0,0,.21,1.26,1.8,1.8,0,0,0,.63.84,1.77,1.77,0,0,0,1.06.3A1.89,1.89,0,0,0,188.33,31.94Z" transform="translate(-19 -4)"/><path class="cls-1" d="M195.69,32.79v.06h-1L193,30.51h-.88v2.33h-.85v-6h1.95a2.85,2.85,0,0,1,1.18.22,1.62,1.62,0,0,1,.73.62,1.72,1.72,0,0,1,.24.92,1.88,1.88,0,0,1-.16.78,1.68,1.68,0,0,1-.49.62,2,2,0,0,1-.8.38Zm-3.59-3h1a1.59,1.59,0,0,0,1-.3,1,1,0,0,0,.35-.84,1,1,0,0,0-.33-.8,1.46,1.46,0,0,0-1-.28H192.1Z" transform="translate(-19 -4)"/><path class="cls-1" d="M199.29,26.87l2.24,5.91v.06h-.88l-.62-1.7h-2.55l-.62,1.7H196v-.06l2.25-5.91Zm-1.55,3.57h2l-1-2.76Z" transform="translate(-19 -4)"/><path class="cls-1" d="M202.84,32.77a3.17,3.17,0,0,1-1-.5l.41-.61a2.58,2.58,0,0,0,.83.43,3,3,0,0,0,.88.14,1.8,1.8,0,0,0,1-.24.94.94,0,0,0,.22-1.2,1.11,1.11,0,0,0-.4-.34,5.8,5.8,0,0,0-.81-.34l-.16-.06a6.25,6.25,0,0,1-.94-.4,1.66,1.66,0,0,1-.58-.52,1.39,1.39,0,0,1-.22-.81,1.36,1.36,0,0,1,.28-.87,1.69,1.69,0,0,1,.74-.53,2.76,2.76,0,0,1,1-.18,3.87,3.87,0,0,1,1,.14,3.4,3.4,0,0,1,1,.45l-.39.61a3.23,3.23,0,0,0-.78-.37,2.9,2.9,0,0,0-.85-.12,1.5,1.5,0,0,0-.81.2.69.69,0,0,0-.25.27.82.82,0,0,0,0,.74,1,1,0,0,0,.37.31,4.86,4.86,0,0,0,.73.31l.16.06a7.78,7.78,0,0,1,1,.4,1.84,1.84,0,0,1,.64.54,1.49,1.49,0,0,1,.27.92,1.61,1.61,0,0,1-.27.94,1.65,1.65,0,0,1-.76.58A3.18,3.18,0,0,1,204,33,3.77,3.77,0,0,1,202.84,32.77Z" transform="translate(-19 -4)"/><path class="cls-1" d="M92.32,37.93V38l-2.21,3.59V43.9h-.85V41.55L87.11,38v-.06H88l1.67,2.87,1.73-2.87Z" transform="translate(-19 -4)"/><path class="cls-1" d="M99.58,38.64a2.88,2.88,0,0,1,.81,2.28,3.15,3.15,0,0,1-.41,1.67,2.48,2.48,0,0,1-1.15,1,4.3,4.3,0,0,1-1.73.32H95.45v-6h1.8A3.43,3.43,0,0,1,99.58,38.64ZM98.35,43a1.59,1.59,0,0,0,.85-.69,2.65,2.65,0,0,0,.3-1.38A2.35,2.35,0,0,0,99,39.19a2.3,2.3,0,0,0-1.69-.55h-1v4.53H97A4.09,4.09,0,0,0,98.35,43Z" transform="translate(-19 -4)"/><path class="cls-1" d="M102.4,43.18h2.93v.72h-3.78v-6h3.74v.72H102.4v1.86h2.53l-.09.7H102.4Z" transform="translate(-19 -4)"/><path class="cls-1" d="M113.17,37.93v.74H111.1V43.9h-.85V38.67h-2.08v-.74Z" transform="translate(-19 -4)"/><path class="cls-1" d="M118.53,43.85v.06h-1l-1.72-2.33h-.89V43.9h-.85v-6H116a2.84,2.84,0,0,1,1.18.22,1.61,1.61,0,0,1,.73.62,1.73,1.73,0,0,1,.24.92,1.9,1.9,0,0,1-.16.78,1.69,1.69,0,0,1-.48.62,2,2,0,0,1-.8.38Zm-3.59-3h1a1.59,1.59,0,0,0,1-.3,1,1,0,0,0,.35-.84,1,1,0,0,0-.33-.8,1.46,1.46,0,0,0-1-.28h-1.08Z" transform="translate(-19 -4)"/><path class="cls-1" d="M122.13,37.93l2.25,5.91v.06h-.88l-.63-1.7h-2.55l-.62,1.7h-.85v-.06l2.25-5.91Zm-1.55,3.57h2l-1-2.76Z" transform="translate(-19 -4)"/><path class="cls-1" d="M130.19,37.93v6h-.94L126.62,40l-.12-.18-.12-.18-.17-.26-.12-.24V43.9h-.81v-6h.89l2.7,4,.16.23c.08.11.15.22.2.31a2.34,2.34,0,0,1,.14.27V37.93Z" transform="translate(-19 -4)"/><path class="cls-1" d="M132.19,43.83a3.16,3.16,0,0,1-1-.5l.4-.61a2.59,2.59,0,0,0,.83.43,3,3,0,0,0,.88.14,1.8,1.8,0,0,0,1-.24.94.94,0,0,0,.22-1.2,1.13,1.13,0,0,0-.41-.34,5.84,5.84,0,0,0-.81-.34l-.16-.06a6.26,6.26,0,0,1-.94-.4,1.67,1.67,0,0,1-.58-.52,1.4,1.4,0,0,1-.22-.81,1.36,1.36,0,0,1,.28-.87,1.69,1.69,0,0,1,.74-.53,2.76,2.76,0,0,1,1-.18,3.87,3.87,0,0,1,1,.14,3.38,3.38,0,0,1,1,.45l-.39.61a3.24,3.24,0,0,0-.78-.37,2.91,2.91,0,0,0-.85-.12,1.5,1.5,0,0,0-.81.2.69.69,0,0,0-.32.63.71.71,0,0,0,.11.39,1,1,0,0,0,.37.31,4.81,4.81,0,0,0,.73.31l.16.06a7.81,7.81,0,0,1,1,.4,1.85,1.85,0,0,1,.64.54,1.48,1.48,0,0,1,.27.92,1.61,1.61,0,0,1-.27.94,1.65,1.65,0,0,1-.76.58,3.19,3.19,0,0,1-1.18.2A3.77,3.77,0,0,1,132.19,43.83Z" transform="translate(-19 -4)"/><path class="cls-1" d="M142.83,37.93v6H142V39.31a6.54,6.54,0,0,1-.36.82l-1.44,2.79h-.82L138,40.13l-.23-.45a4,4,0,0,1-.17-.37v4.58h-.81v-6h1l1.35,2.63a13.61,13.61,0,0,1,.73,1.61,6.67,6.67,0,0,1,.28-.71q.18-.4.45-.9l1.36-2.63Z" transform="translate(-19 -4)"/><path class="cls-1" d="M144.34,43.9v-6h.85v6Z" transform="translate(-19 -4)"/><path class="cls-1" d="M147.18,43.83a3.18,3.18,0,0,1-1-.5l.41-.61a2.58,2.58,0,0,0,.83.43,3,3,0,0,0,.88.14,1.8,1.8,0,0,0,1-.24.94.94,0,0,0,.22-1.2,1.13,1.13,0,0,0-.41-.34,5.84,5.84,0,0,0-.81-.34l-.16-.06a6.26,6.26,0,0,1-.94-.4,1.67,1.67,0,0,1-.58-.52,1.4,1.4,0,0,1-.22-.81,1.36,1.36,0,0,1,.28-.87,1.69,1.69,0,0,1,.74-.53,2.75,2.75,0,0,1,1-.18,3.87,3.87,0,0,1,1,.14,3.4,3.4,0,0,1,1,.45l-.39.61a3.23,3.23,0,0,0-.78-.37,2.9,2.9,0,0,0-.85-.12,1.5,1.5,0,0,0-.81.2.69.69,0,0,0-.32.63.71.71,0,0,0,.11.39,1,1,0,0,0,.37.31,4.81,4.81,0,0,0,.73.31l.16.06a7.81,7.81,0,0,1,1,.4,1.86,1.86,0,0,1,.64.54,1.48,1.48,0,0,1,.27.92,1.61,1.61,0,0,1-.27.94,1.65,1.65,0,0,1-.76.58,3.19,3.19,0,0,1-1.18.2A3.77,3.77,0,0,1,147.18,43.83Z" transform="translate(-19 -4)"/><path class="cls-1" d="M151.76,43.9v-6h.85v6Z" transform="translate(-19 -4)"/><path class="cls-1" d="M155,43.62a2.45,2.45,0,0,1-.94-1.09,3.9,3.9,0,0,1-.32-1.63,3.48,3.48,0,0,1,.39-1.72,2.47,2.47,0,0,1,1-1,3.08,3.08,0,0,1,1.43-.33,2.82,2.82,0,0,1,1.52.39,2.45,2.45,0,0,1,.94,1.09,3.92,3.92,0,0,1,.32,1.63,3.47,3.47,0,0,1-.39,1.72,2.47,2.47,0,0,1-1,1,3.08,3.08,0,0,1-1.43.33A2.82,2.82,0,0,1,155,43.62Zm2.61-.63a1.81,1.81,0,0,0,.66-.82,3.21,3.21,0,0,0,.22-1.23,3.5,3.5,0,0,0-.21-1.25,1.8,1.8,0,0,0-.63-.84,1.77,1.77,0,0,0-1.06-.3,1.89,1.89,0,0,0-1.09.3,1.81,1.81,0,0,0-.66.82,3.21,3.21,0,0,0-.22,1.23,3.48,3.48,0,0,0,.21,1.25,1.79,1.79,0,0,0,.63.84,1.77,1.77,0,0,0,1.06.3A1.89,1.89,0,0,0,157.66,43Zm-1.51-5.49-.3-.36L157.28,36l.47.65Z" transform="translate(-19 -4)"/><path class="cls-1" d="M165.49,37.93v6h-.94L161.92,40l-.12-.18-.12-.18a2.77,2.77,0,0,1-.17-.26c0-.08-.09-.16-.12-.24V43.9h-.81v-6h.89l2.71,4,.16.23c.08.11.15.22.2.31a2.51,2.51,0,0,1,.14.27V37.93Z" transform="translate(-19 -4)"/><path class="cls-1" d="M53,54.41l1.64,7.07S39.74,64.49,30,56,19.72,39.5,19.72,39.5L27,37.86s2.07,9.4,9.66,14S53,54.41,53,54.41" transform="translate(-19 -4)"/><path class="cls-1" d="M39,27H36.53V43.57H32.36V27H29.41V22.61H39Z" transform="translate(-19 -4)"/><path class="cls-1" d="M39.85,43.57v-21h5.08a4.92,4.92,0,0,1,3.59,1.23,4.62,4.62,0,0,1,1.26,3.46A7.12,7.12,0,0,1,49,30.58a4.08,4.08,0,0,1-2,1.69v.06c1,.18,1.79.2,2.38,1.07a5.57,5.57,0,0,1,.89,3.2c0,1.83,0,3.29-.87,4.36s-2.67,2.62-4.25,2.62Zm3.65-17.7v4.74h.88a1.88,1.88,0,0,0,1.53-.68,2.84,2.84,0,0,0,.56-1.86q0-2.2-2.3-2.2Zm0,8.09v5.27h1.2a2.13,2.13,0,0,0,1.71-.73,2.93,2.93,0,0,0,.62-2,2.73,2.73,0,0,0-.61-1.88,2.16,2.16,0,0,0-1.7-.68Z" transform="translate(-19 -4)"/><path class="cls-1" d="M51.31,22.56h6.41l.91,11.1,1.1-11.1,6.67.05v21H62.44l.07-15.93L60.11,43.57H57.26L55.52,27.84l-.32,15.73H51.31Z" transform="translate(-19 -4)"/></svg>