<svg id="Layer_1" data-name="Layer 1" xmlns="http://www.w3.org/2000/svg" viewBox="0 0 213.33 66"><defs><style>.cls-1{fill:#fff;}</style></defs><title>logoDer</title><path class="cls-1" d="M0,0H213.33l-41.5,66H0Z"/><path d="M8.47,30.26a1.48,1.48,0,0,1,.3.91,1.55,1.55,0,0,1-.24.86,1.62,1.62,0,0,1-.73.59,2.93,2.93,0,0,1-1.19.22H4.45v-6H6.53a2.68,2.68,0,0,1,1.08.2,1.59,1.59,0,0,1,.69.54,1.36,1.36,0,0,1,.24.8,1.29,1.29,0,0,1-.24.77,1.49,1.49,0,0,1-.77.52A1.62,1.62,0,0,1,8.47,30.26ZM5.3,27.57v1.88H6.41a1.61,1.61,0,0,0,.91-.24A.94.94,0,0,0,7.55,28a.86.86,0,0,0-.38-.32,1.47,1.47,0,0,0-.61-.12Zm2.29,4.29a.93.93,0,0,0,.29-.71.94.94,0,0,0-.07-.41,1,1,0,0,0-.24-.34,1.37,1.37,0,0,0-.93-.28H5.3v2H6.62a1.38,1.38,0,0,0,1-.28Z"/><path d="M12.48,26.87l2.25,5.91v.06h-.88l-.63-1.7H10.68l-.62,1.7H9.21v-.06l2.25-5.91Zm-1.55,3.57h2l-1-2.76Z"/><path d="M20.55,26.87v6h-.94L17,29l-.12-.18-.12-.18-.17-.26-.12-.24v4.72h-.81v-6h.89l2.7,4,.16.23c.08.11.15.22.2.31a2.36,2.36,0,0,1,.14.27V26.87Z"/><path d="M26.19,27.58A2.88,2.88,0,0,1,27,29.86a3.15,3.15,0,0,1-.41,1.67,2.48,2.48,0,0,1-1.15,1,4.3,4.3,0,0,1-1.73.32H22.06v-6h1.8A3.42,3.42,0,0,1,26.19,27.58ZM25,31.93a1.6,1.6,0,0,0,.85-.69,2.65,2.65,0,0,0,.3-1.38,2.35,2.35,0,0,0-.54-1.72,2.3,2.3,0,0,0-1.69-.55h-1v4.53h.69A4.09,4.09,0,0,0,25,31.93Z"/><path d="M30.58,26.87l2.24,5.91v.06h-.88l-.62-1.7H28.77l-.62,1.7H27.3v-.06l2.25-5.91ZM29,30.44h2l-1-2.76Z"/><path d="M34.14,32.77a3.16,3.16,0,0,1-1-.5l.4-.61a2.59,2.59,0,0,0,.84.43,3,3,0,0,0,.88.14,1.8,1.8,0,0,0,1-.24.94.94,0,0,0,.22-1.2,1.11,1.11,0,0,0-.41-.34,5.85,5.85,0,0,0-.81-.34l-.16-.06a6.29,6.29,0,0,1-.94-.4,1.67,1.67,0,0,1-.58-.52,1.4,1.4,0,0,1-.22-.81,1.36,1.36,0,0,1,.28-.87,1.69,1.69,0,0,1,.74-.53,2.76,2.76,0,0,1,1-.18,3.87,3.87,0,0,1,1,.14,3.38,3.38,0,0,1,1,.45L37,28a3.25,3.25,0,0,0-.78-.37,2.92,2.92,0,0,0-.85-.12,1.5,1.5,0,0,0-.81.21.69.69,0,0,0-.32.63.7.7,0,0,0,.11.39,1,1,0,0,0,.37.31,4.82,4.82,0,0,0,.73.31l.16.06a7.77,7.77,0,0,1,1,.4,1.85,1.85,0,0,1,.64.54,1.49,1.49,0,0,1,.27.92,1.61,1.61,0,0,1-.27.94,1.65,1.65,0,0,1-.77.58,3.18,3.18,0,0,1-1.18.2A3.78,3.78,0,0,1,34.14,32.77Z"/><path d="M45.33,26.87v.74H43.27v5.23h-.85V27.61H40.34v-.74Z"/><path d="M50.69,32.79v.06h-1L48,30.51h-.89v2.33h-.85v-6H48.2a2.84,2.84,0,0,1,1.18.22,1.61,1.61,0,0,1,.73.62,1.73,1.73,0,0,1,.24.92,1.9,1.9,0,0,1-.16.78,1.69,1.69,0,0,1-.48.62,2,2,0,0,1-.8.38Zm-3.59-3h1a1.59,1.59,0,0,0,1-.3,1,1,0,0,0,.35-.84,1,1,0,0,0-.33-.8,1.46,1.46,0,0,0-1-.28H47.1Z"/><path d="M54.29,26.87l2.25,5.91v.06h-.88L55,31.14H52.49l-.62,1.7H51v-.06l2.24-5.91Zm-1.55,3.57h2l-1-2.76Z"/><path d="M62.36,26.87v6h-.94L58.79,29l-.12-.18-.12-.18-.17-.26-.12-.24v4.72h-.81v-6h.9l2.7,4,.16.23c.08.11.15.22.2.31a2.72,2.72,0,0,1,.14.27V26.87Z"/><path d="M64.35,32.77a3.16,3.16,0,0,1-1-.5l.4-.61a2.59,2.59,0,0,0,.83.43,3,3,0,0,0,.88.14,1.8,1.8,0,0,0,1-.24.94.94,0,0,0,.22-1.2,1.13,1.13,0,0,0-.41-.34,5.84,5.84,0,0,0-.81-.34l-.16-.06a6.25,6.25,0,0,1-.94-.4,1.67,1.67,0,0,1-.58-.52,1.4,1.4,0,0,1-.22-.81,1.36,1.36,0,0,1,.28-.87,1.69,1.69,0,0,1,.74-.53,2.75,2.75,0,0,1,1-.18,3.87,3.87,0,0,1,1,.14,3.38,3.38,0,0,1,1,.45l-.38.61a3.23,3.23,0,0,0-.78-.37,2.9,2.9,0,0,0-.85-.12,1.5,1.5,0,0,0-.81.2.69.69,0,0,0-.32.63.7.7,0,0,0,.11.39A1,1,0,0,0,65,29a4.81,4.81,0,0,0,.73.31l.16.06a7.78,7.78,0,0,1,1,.4,1.86,1.86,0,0,1,.64.54,1.48,1.48,0,0,1,.27.92,1.61,1.61,0,0,1-.27.94,1.65,1.65,0,0,1-.76.58,3.19,3.19,0,0,1-1.18.2A3.78,3.78,0,0,1,64.35,32.77Z"/><path d="M72.13,27.1a1.63,1.63,0,0,1,.75.64,1.8,1.8,0,0,1,.25,1,2,2,0,0,1-.25,1,1.8,1.8,0,0,1-.77.71,2.73,2.73,0,0,1-1.26.26H69.78v2.2h-.85v-6h2A2.92,2.92,0,0,1,72.13,27.1Zm-.25,2.51a1.09,1.09,0,0,0,.28-.4,1.11,1.11,0,0,0,.08-.48,1.05,1.05,0,0,0-.34-.84,1.49,1.49,0,0,0-1-.29H69.78v2.33h1A1.64,1.64,0,0,0,71.87,29.61Z"/><path d="M75,32.56a2.45,2.45,0,0,1-.94-1.09,3.91,3.91,0,0,1-.32-1.63,3.49,3.49,0,0,1,.39-1.72,2.48,2.48,0,0,1,1-1,3.08,3.08,0,0,1,1.43-.33,2.82,2.82,0,0,1,1.52.39,2.45,2.45,0,0,1,.94,1.09,3.9,3.9,0,0,1,.32,1.63A3.47,3.47,0,0,1,79,31.6a2.47,2.47,0,0,1-1,1,3.08,3.08,0,0,1-1.43.33A2.82,2.82,0,0,1,75,32.56Zm2.62-.63a1.8,1.8,0,0,0,.65-.82,3.19,3.19,0,0,0,.22-1.23,3.5,3.5,0,0,0-.21-1.26,1.8,1.8,0,0,0-.63-.84,1.77,1.77,0,0,0-1.06-.3,1.89,1.89,0,0,0-1.09.3,1.81,1.81,0,0,0-.65.82,3.19,3.19,0,0,0-.22,1.23,3.49,3.49,0,0,0,.21,1.26,1.8,1.8,0,0,0,.63.84,1.77,1.77,0,0,0,1.06.3,1.89,1.89,0,0,0,1.09-.3Z"/><path d="M85,32.79v.06h-1l-1.72-2.33h-.89v2.33H80.6v-6h1.95a2.85,2.85,0,0,1,1.19.22,1.62,1.62,0,0,1,.73.62,1.72,1.72,0,0,1,.24.92,1.88,1.88,0,0,1-.16.78,1.69,1.69,0,0,1-.48.62,2,2,0,0,1-.8.38Zm-3.59-3h1a1.59,1.59,0,0,0,1-.3,1,1,0,0,0,.35-.84,1,1,0,0,0-.33-.8,1.46,1.46,0,0,0-1-.28H81.44Z"/><path d="M90.14,26.87v.74H88.07v5.23h-.85V27.61H85.14v-.74Z"/><path d="M92.86,26.87l2.25,5.91v.06h-.88l-.63-1.7H91l-.62,1.7h-.85v-.06l2.25-5.91Zm-1.55,3.57h2l-1-2.76Z"/><path d="M100.14,27.58a2.88,2.88,0,0,1,.81,2.28,3.14,3.14,0,0,1-.41,1.67,2.47,2.47,0,0,1-1.15,1,4.3,4.3,0,0,1-1.73.32H96v-6h1.8A3.42,3.42,0,0,1,100.14,27.58Zm-1.23,4.35a1.59,1.59,0,0,0,.85-.69,2.65,2.65,0,0,0,.3-1.38,2.35,2.35,0,0,0-.54-1.72,2.3,2.3,0,0,0-1.69-.55h-1v4.53h.7A4.08,4.08,0,0,0,98.91,31.93Z"/><path d="M103,32.56a2.45,2.45,0,0,1-.94-1.09,3.9,3.9,0,0,1-.32-1.63,3.48,3.48,0,0,1,.39-1.72,2.47,2.47,0,0,1,1-1,3.08,3.08,0,0,1,1.43-.33,2.82,2.82,0,0,1,1.52.39,2.46,2.46,0,0,1,.94,1.09,3.92,3.92,0,0,1,.32,1.63A3.47,3.47,0,0,1,107,31.6a2.48,2.48,0,0,1-1,1,3.08,3.08,0,0,1-1.43.33A2.82,2.82,0,0,1,103,32.56Zm2.61-.63a1.81,1.81,0,0,0,.66-.82,3.21,3.21,0,0,0,.22-1.23,3.5,3.5,0,0,0-.21-1.26,1.8,1.8,0,0,0-.63-.84,1.77,1.77,0,0,0-1.06-.3,1.89,1.89,0,0,0-1.09.3,1.81,1.81,0,0,0-.65.82,3.19,3.19,0,0,0-.22,1.23,3.48,3.48,0,0,0,.21,1.26,1.8,1.8,0,0,0,.63.84,1.77,1.77,0,0,0,1.06.3A1.89,1.89,0,0,0,105.66,31.94Z"/><path d="M113,32.79v.06h-1l-1.72-2.33h-.88v2.33h-.85v-6h1.95a2.85,2.85,0,0,1,1.18.22,1.62,1.62,0,0,1,.73.62,1.72,1.72,0,0,1,.24.92,1.88,1.88,0,0,1-.16.78A1.68,1.68,0,0,1,112,30a2,2,0,0,1-.8.38Zm-3.59-3h1a1.59,1.59,0,0,0,1-.3,1,1,0,0,0,.35-.84,1,1,0,0,0-.33-.8,1.46,1.46,0,0,0-1-.28h-1.08Z"/><path d="M116.63,26.87l2.24,5.91v.06H118l-.62-1.7h-2.55l-.62,1.7h-.85v-.06l2.25-5.91Zm-1.55,3.57h2l-1-2.76Z"/><path d="M120.17,32.77a3.17,3.17,0,0,1-1-.5l.41-.61a2.58,2.58,0,0,0,.83.43,3,3,0,0,0,.88.14,1.8,1.8,0,0,0,1-.24.94.94,0,0,0,.22-1.2,1.11,1.11,0,0,0-.4-.34,5.8,5.8,0,0,0-.81-.34l-.16-.06a6.25,6.25,0,0,1-.94-.4,1.66,1.66,0,0,1-.58-.52,1.39,1.39,0,0,1-.22-.81,1.36,1.36,0,0,1,.28-.87,1.69,1.69,0,0,1,.74-.53,2.76,2.76,0,0,1,1-.18,3.87,3.87,0,0,1,1,.14,3.4,3.4,0,0,1,1,.45l-.39.61a3.23,3.23,0,0,0-.78-.37,2.9,2.9,0,0,0-.85-.12,1.5,1.5,0,0,0-.81.2.69.69,0,0,0-.25.27.82.82,0,0,0,0,.74,1,1,0,0,0,.37.31,4.86,4.86,0,0,0,.73.31l.16.06a7.78,7.78,0,0,1,1,.4,1.84,1.84,0,0,1,.64.54,1.49,1.49,0,0,1,.27.92,1.61,1.61,0,0,1-.27.94,1.65,1.65,0,0,1-.76.58,3.18,3.18,0,0,1-1.18.2A3.77,3.77,0,0,1,120.17,32.77Z"/><path d="M9.66,37.93V38L7.44,41.57V43.9H6.59V41.55L4.45,38v-.06h.93L7,40.8l1.73-2.87Z"/><path d="M16.91,38.64a2.88,2.88,0,0,1,.81,2.28,3.15,3.15,0,0,1-.41,1.67,2.48,2.48,0,0,1-1.15,1,4.3,4.3,0,0,1-1.73.32H12.78v-6h1.8A3.43,3.43,0,0,1,16.91,38.64ZM15.68,43a1.59,1.59,0,0,0,.85-.69,2.65,2.65,0,0,0,.3-1.38,2.35,2.35,0,0,0-.54-1.72,2.3,2.3,0,0,0-1.69-.55h-1v4.53h.69A4.09,4.09,0,0,0,15.68,43Z"/><path d="M19.74,43.18h2.93v.72H18.89v-6h3.74v.72H19.74v1.86h2.53l-.09.7H19.74Z"/><path d="M30.5,37.93v.74H28.44V43.9h-.85V38.67H25.51v-.74Z"/><path d="M35.86,43.85v.06h-1l-1.72-2.33h-.89V43.9h-.85v-6h1.94a2.84,2.84,0,0,1,1.18.22,1.61,1.61,0,0,1,.73.62,1.73,1.73,0,0,1,.24.92,1.9,1.9,0,0,1-.16.78,1.69,1.69,0,0,1-.48.62,2,2,0,0,1-.8.38Zm-3.59-3h1a1.59,1.59,0,0,0,1-.3,1,1,0,0,0,.35-.84,1,1,0,0,0-.33-.8,1.46,1.46,0,0,0-1-.28H32.27Z"/><path d="M39.46,37.93l2.25,5.91v.06h-.88l-.63-1.7H37.65L37,43.9h-.85v-.06l2.25-5.91ZM37.91,41.5h2l-1-2.76Z"/><path d="M47.53,37.93v6h-.94L44,40l-.12-.18-.12-.18-.17-.26-.12-.24V43.9h-.81v-6h.89l2.7,4,.16.23c.08.11.15.22.2.31a2.34,2.34,0,0,1,.14.27V37.93Z"/><path d="M49.52,43.83a3.16,3.16,0,0,1-1-.5l.4-.61a2.59,2.59,0,0,0,.83.43,3,3,0,0,0,.88.14,1.8,1.8,0,0,0,1-.24.94.94,0,0,0,.22-1.2,1.13,1.13,0,0,0-.41-.34,5.84,5.84,0,0,0-.81-.34l-.16-.06a6.26,6.26,0,0,1-.94-.4,1.67,1.67,0,0,1-.58-.52,1.4,1.4,0,0,1-.22-.81,1.36,1.36,0,0,1,.28-.87,1.69,1.69,0,0,1,.74-.53,2.76,2.76,0,0,1,1-.18,3.87,3.87,0,0,1,1,.14,3.38,3.38,0,0,1,1,.45l-.39.61a3.24,3.24,0,0,0-.78-.37,2.91,2.91,0,0,0-.85-.12,1.5,1.5,0,0,0-.81.2.69.69,0,0,0-.32.63.71.71,0,0,0,.11.39,1,1,0,0,0,.37.31,4.81,4.81,0,0,0,.73.31l.16.06a7.81,7.81,0,0,1,1,.4,1.85,1.85,0,0,1,.64.54,1.48,1.48,0,0,1,.27.92,1.61,1.61,0,0,1-.27.94,1.65,1.65,0,0,1-.76.58,3.19,3.19,0,0,1-1.18.2A3.77,3.77,0,0,1,49.52,43.83Z"/><path d="M60.16,37.93v6h-.82V39.31a6.54,6.54,0,0,1-.36.82l-1.44,2.79h-.82L55.3,40.13l-.23-.45a4,4,0,0,1-.17-.37v4.58h-.81v-6h1l1.35,2.63a13.61,13.61,0,0,1,.73,1.61,6.67,6.67,0,0,1,.28-.71q.18-.4.45-.9l1.36-2.63Z"/><path d="M61.68,43.9v-6h.85v6Z"/><path d="M64.52,43.83a3.18,3.18,0,0,1-1-.5l.41-.61a2.58,2.58,0,0,0,.83.43,3,3,0,0,0,.88.14,1.8,1.8,0,0,0,1-.24.94.94,0,0,0,.22-1.2,1.13,1.13,0,0,0-.41-.34,5.84,5.84,0,0,0-.81-.34l-.16-.06a6.26,6.26,0,0,1-.94-.4,1.67,1.67,0,0,1-.58-.52,1.4,1.4,0,0,1-.22-.81,1.36,1.36,0,0,1,.28-.87,1.69,1.69,0,0,1,.74-.53,2.75,2.75,0,0,1,1-.18,3.87,3.87,0,0,1,1,.14,3.4,3.4,0,0,1,1,.45l-.39.61a3.23,3.23,0,0,0-.78-.37,2.9,2.9,0,0,0-.85-.12,1.5,1.5,0,0,0-.81.2.69.69,0,0,0-.32.63.71.71,0,0,0,.11.39,1,1,0,0,0,.37.31,4.81,4.81,0,0,0,.73.31l.16.06a7.81,7.81,0,0,1,1,.4,1.86,1.86,0,0,1,.64.54,1.48,1.48,0,0,1,.27.92,1.61,1.61,0,0,1-.27.94,1.65,1.65,0,0,1-.76.58,3.19,3.19,0,0,1-1.18.2A3.77,3.77,0,0,1,64.52,43.83Z"/><path d="M69.09,43.9v-6h.85v6Z"/><path d="M72.38,43.62a2.45,2.45,0,0,1-.94-1.09,3.9,3.9,0,0,1-.32-1.63,3.48,3.48,0,0,1,.39-1.72,2.47,2.47,0,0,1,1-1A3.08,3.08,0,0,1,74,37.82a2.82,2.82,0,0,1,1.52.39,2.45,2.45,0,0,1,.94,1.09,3.92,3.92,0,0,1,.32,1.63,3.47,3.47,0,0,1-.39,1.72,2.47,2.47,0,0,1-1,1A3.08,3.08,0,0,1,73.9,44,2.82,2.82,0,0,1,72.38,43.62ZM75,43a1.81,1.81,0,0,0,.66-.82,3.21,3.21,0,0,0,.22-1.23,3.5,3.5,0,0,0-.21-1.25,1.8,1.8,0,0,0-.63-.84,1.77,1.77,0,0,0-1.06-.3,1.89,1.89,0,0,0-1.09.3,1.81,1.81,0,0,0-.66.82A3.21,3.21,0,0,0,72,40.89a3.48,3.48,0,0,0,.21,1.25,1.79,1.79,0,0,0,.63.84,1.77,1.77,0,0,0,1.06.3A1.89,1.89,0,0,0,75,43Zm-1.51-5.49-.3-.36L74.62,36l.47.65Z"/><path d="M82.83,37.93v6h-.94L79.26,40l-.12-.18L79,39.68a2.77,2.77,0,0,1-.17-.26c0-.08-.09-.16-.12-.24V43.9h-.81v-6h.89l2.71,4,.16.23c.08.11.15.22.2.31a2.51,2.51,0,0,1,.14.27V37.93Z"/></svg>