<svg id="Layer_1" data-name="Layer 1" xmlns="http://www.w3.org/2000/svg" viewBox="0 0 787 787"><defs><style>.cls-1{fill:#fff;}.cls-2{fill:#245ae0;}</style></defs><title>mail</title><circle class="cls-1" cx="393.5" cy="393.5" r="393.5"/><circle class="cls-2" cx="393.5" cy="393.5" r="341.5"/><g id="Complete"><g id="mail"><path class="cls-1" d="M404,433a23.47,23.47,0,0,1-14.14-4.73L216.66,297.82a23.5,23.5,0,1,1,28.28-37.54L404,380.13,560.77,262.58a23.5,23.5,0,1,1,28.2,37.6L418.1,428.33A23.46,23.46,0,0,1,404,433Z" transform="translate(-9 -5)"/><path class="cls-1" d="M585.22,598.72H222.78a75.36,75.36,0,0,1-75.28-75.28V264.56a75.36,75.36,0,0,1,75.28-75.28H585.22a75.36,75.36,0,0,1,75.28,75.28V523.44A75.36,75.36,0,0,1,585.22,598.72ZM222.78,236.28a28.31,28.31,0,0,0-28.28,28.28V523.44a28.31,28.31,0,0,0,28.28,28.28H585.22a28.31,28.31,0,0,0,28.28-28.28V264.56a28.31,28.31,0,0,0-28.28-28.28Z" transform="translate(-9 -5)"/></g></g></svg>