<svg width="55" height="54" viewBox="0 0 55 54" fill="none" xmlns="http://www.w3.org/2000/svg">
<path d="M1.15683 26.5731C1.15556 31.0925 2.35496 35.5053 4.6356 39.3949L0.938721 52.6843L14.7521 49.1183C18.5728 51.1661 22.8535 52.2391 27.2035 52.2394H27.215C41.5753 52.2394 53.265 40.7344 53.2712 26.5933C53.2739 19.7409 50.566 13.2974 45.646 8.44963C40.7268 3.60229 34.1846 0.93135 27.2139 0.928223C12.8518 0.928223 1.16276 12.4326 1.15683 26.5731Z" fill="url(#paint0_linear_2041_84)"/>
<path d="M0.226581 26.5647C0.225099 31.2467 1.46748 35.8174 3.82944 39.8462L0 53.612L14.3087 49.9183C18.2512 52.0346 22.6901 53.1505 27.2069 53.1521H27.2186C42.0942 53.1521 54.2038 41.2333 54.2101 26.586C54.2127 19.4874 51.4073 12.8122 46.3115 7.79078C41.2151 2.76997 34.4389 0.00291883 27.2186 0C12.3404 0 0.232511 11.9172 0.226581 26.5647ZM8.74795 39.1524L8.21368 38.3174C5.96777 34.8014 4.78235 30.7384 4.78404 26.5664C4.7887 14.3917 14.8523 4.48666 27.227 4.48666C33.2198 4.48916 38.8517 6.7892 43.0877 10.9623C47.3235 15.1358 49.6544 20.6837 49.6529 26.5843C49.6474 38.7589 39.5836 48.6653 27.2186 48.6653H27.2097C23.1835 48.6632 19.2349 47.5986 15.7912 45.5869L14.9717 45.1084L6.48065 47.3003L8.74795 39.1524Z" fill="url(#paint1_linear_2041_84)"/>
<path d="M20.4723 15.459C19.9671 14.3534 19.4353 14.331 18.9549 14.3117C18.5614 14.295 18.1116 14.2962 17.6623 14.2962C17.2125 14.2962 16.4817 14.4628 15.864 15.1268C15.2457 15.7915 13.5034 17.3977 13.5034 20.6645C13.5034 23.9313 15.9202 27.0886 16.2571 27.5321C16.5944 27.9747 20.9227 34.8932 27.7778 37.5547C33.4749 39.7666 34.6343 39.3267 35.8707 39.2157C37.1074 39.1052 39.8611 37.61 40.4229 36.0594C40.9851 34.5091 40.9851 33.1802 40.8166 32.9025C40.648 32.6259 40.1982 32.4597 39.5238 32.1278C38.8493 31.7959 35.5334 30.1893 34.9153 29.9676C34.297 29.7462 33.8474 29.6357 33.3976 30.3006C32.9478 30.9644 31.6563 32.4597 31.2627 32.9025C30.8694 33.3464 30.4758 33.4016 29.8015 33.0695C29.1267 32.7364 26.9547 32.036 24.3778 29.7742C22.3729 28.0141 21.0193 25.8406 20.6258 25.1758C20.2324 24.5119 20.5837 24.1521 20.9219 23.8212C21.2249 23.5237 21.5965 23.0458 21.9341 22.6583C22.2704 22.2705 22.3826 21.9938 22.6075 21.551C22.8326 21.1077 22.7199 20.7199 22.5516 20.3878C22.3826 20.0557 21.072 16.7718 20.4723 15.459Z" fill="white"/>
<defs>
<linearGradient id="paint0_linear_2041_84" x1="2617.56" y1="5176.54" x2="2617.56" y2="0.928223" gradientUnits="userSpaceOnUse">
<stop stop-color="#1FAF38"/>
<stop offset="1" stop-color="#60D669"/>
</linearGradient>
<linearGradient id="paint1_linear_2041_84" x1="2710.51" y1="5361.2" x2="2710.51" y2="0" gradientUnits="userSpaceOnUse">
<stop stop-color="#F9F9F9"/>
<stop offset="1" stop-color="white"/>
</linearGradient>
</defs>
</svg>
